<svg width="192" height="192" viewBox="0 0 192 192" fill="none"
    xmlns="http://www.w3.org/2000/svg">
    <rect width="192" height="192" rx="24" fill="#3B82F6"/>
    <path d="M48 96C48 69.4903 69.4903 48 96 48C122.51 48 144 69.4903 144 96C144 122.51 122.51 144 96 144C69.4903 144 48 122.51 48 96Z" fill="white" fill-opacity="0.1"/>
    <path d="M96 64C78.3269 64 64 78.3269 64 96C64 113.673 78.3269 128 96 128C113.673 128 128 113.673 128 96C128 78.3269 113.673 64 96 64ZM96 120C82.7452 120 72 109.255 72 96C72 82.7452 82.7452 72 96 72C109.255 72 120 82.7452 120 96C120 109.255 109.255 120 96 120Z" fill="white"/>
    <path d="M88 88H104V104H88V88Z" fill="white"/>
    <path d="M88 104H104V120H88V104Z" fill="white"/>
    <path d="M72 88H88V104H72V88Z" fill="white"/>
    <path d="M104 88H120V104H104V88Z" fill="white"/>
</svg> 